<svg width="667px" height="596px" viewBox="0 0 666.666666666667 595.342817980883" xmlns="http://www.w3.org/2000/svg" xmlns:xlink="http://www.w3.org/1999/xlink">
    <g id="af160330-cf42-4980-bce1-e4636574de42">
<g style="">
		<g id="af160330-cf42-4980-bce1-e4636574de42-child-0">
<path style="stroke: rgb(114, 114, 114); stroke-width: 0; stroke-dasharray: none; stroke-linecap: butt; stroke-dashoffset: 0; stroke-linejoin: miter; stroke-miterlimit: 4; fill: rgb(97, 153, 198); fill-rule: nonzero; opacity: 1;" transform="matrix(1.085095 0 0 1.085095 333.333359 297.671432) matrix(1 0 0 1 0 0)  translate(-512.332329, -513.672469)" d="M 586.25 786.02 C 585.08 784.92 583.71 783.30 583.21 782.40 C 582.32 780.82 577.45 780.51 545.15 780.03 C 543.84 780.02 541.29 778.49 539.40 776.60 C 536.45 773.65 536.00 772.55 536.00 768.23 C 536.00 764.66 536.61 762.50 538.17 760.51 C 541.98 755.67 545.25 755.00 564.97 755.00 L 583.00 755.00 L 583.00 752.45 C 583.00 749.12 585.51 744.33 587.94 743.03 C 590.65 741.58 596.66 741.75 599.29 743.35 C 619.01 755.40 622.94 758.28 623.99 761.47 C 625.34 765.56 624.52 769.17 621.67 771.80 C 620.47 772.89 614.46 776.98 608.29 780.89 C 598.82 786.90 596.41 788.00 592.73 788.00 C 589.77 788.00 587.70 787.36 586.25 786.02 Z M 262.50 780.01 C 247.48 778.18 236.82 772.86 225.47 761.52 C 219.60 755.67 216.32 751.34 213.31 745.50 C 205.20 729.80 205.66 735.61 205.28 643.00 C 204.97 565.56 205.06 560.29 206.73 557.07 C 209.11 552.45 212.99 549.80 217.34 549.80 C 221.24 549.80 227.29 552.99 228.65 555.77 C 229.12 556.72 229.73 594.62 230.00 640.00 L 230.50 722.50 L 232.77 728.11 C 237.77 740.47 245.88 748.94 256.54 752.93 C 262.01 754.98 263.27 755.00 369.79 755.00 C 470.36 755.00 477.73 755.12 480.93 756.75 C 485.71 759.19 488.11 762.85 488.18 767.81 C 488.24 772.49 486.29 776.11 482.28 778.74 C 479.75 780.39 473.08 780.51 374.04 780.62 C 315.99 780.69 265.80 780.42 262.50 780.01 Z M 755.69 778.55 C 753.05 777.80 748.32 775.94 745.19 774.44 C 739.00 771.46 733.52 766.14 668.05 699.59 L 633.71 664.68 L 628.10 667.91 C 590.35 689.67 547.65 700.29 504.50 698.67 C 461.45 697.04 422.87 684.94 387.61 661.98 C 349.32 637.05 318.10 600.20 301.21 560.00 C 292.57 539.43 286.31 515.67 284.05 494.79 C 282.69 482.26 282.70 456.61 284.07 444.21 C 289.31 396.64 311.39 348.50 343.99 313.52 C 380.20 274.69 422.71 251.32 474.50 241.76 C 490.95 238.73 532.93 238.50 548.50 241.36 C 587.95 248.61 620.04 262.80 652.50 287.34 C 663.69 295.80 686.16 318.59 695.04 330.49 C 727.62 374.11 743.59 424.46 741.68 477.50 C 740.62 507.07 734.05 535.24 721.99 562.00 C 717.71 571.49 710.38 585.15 706.86 590.15 C 705.84 591.61 705.00 593.11 705.00 593.48 C 705.00 593.85 728.21 617.60 756.59 646.26 C 790.08 680.09 809.20 700.15 811.10 703.44 C 818.16 715.67 820.07 732.10 815.96 745.38 C 811.83 758.76 800.38 771.16 787.11 776.62 C 781.72 778.84 778.66 779.39 770.50 779.63 C 764.15 779.82 758.75 779.43 755.69 778.55 Z M 778.78 753.45 C 790.27 748.66 796.25 735.26 792.57 722.58 C 790.95 717.03 789.60 715.55 740.81 665.94 C 713.25 637.92 690.59 615.00 690.46 615.00 C 690.32 615.00 682.29 622.92 672.60 632.61 L 655.00 650.22 L 705.08 701.05 C 746.05 742.64 755.93 752.16 759.33 753.37 C 764.87 755.33 774.18 755.37 778.78 753.45 Z M 537.03 672.49 C 583.98 666.80 625.66 645.91 659.00 611.38 C 676.67 593.07 689.05 574.69 699.38 551.39 C 715.56 514.88 720.63 474.38 713.93 435.03 C 710.32 413.80 705.52 399.16 695.76 379.50 C 674.87 337.46 640.64 303.63 598.50 283.37 C 559.34 264.54 514.56 259.20 470.50 268.09 C 396.18 283.09 332.90 344.31 313.99 419.50 C 306.19 450.54 305.87 485.32 313.12 516.30 C 331.21 593.66 394.78 654.73 473.59 670.45 C 492.02 674.13 516.90 674.93 537.03 672.49 Z M 787.45 560.45 C 781.19 557.36 781.00 556.30 780.99 523.85 L 780.99 494.50 L 777.47 492.10 C 775.53 490.79 772.61 488.18 770.98 486.32 C 768.52 483.52 768.00 482.06 768.00 477.89 C 768.00 473.65 768.47 472.38 770.92 469.92 C 773.06 467.78 774.80 467.00 777.42 467.00 L 781.00 467.00 L 781.00 452.45 C 781.00 436.70 781.74 433.71 786.41 430.65 C 790.01 428.29 797.11 428.51 800.39 431.09 C 805.29 434.95 806.00 437.71 806.00 452.95 L 806.00 467.00 L 809.37 467.00 C 817.91 467.00 822.50 477.60 817.38 485.51 C 816.66 486.62 813.81 489.26 811.04 491.37 L 806.00 495.22 L 806.00 523.14 C 806.00 554.21 805.63 556.43 799.81 559.97 C 795.89 562.36 791.66 562.52 787.45 560.45 Z M 222.50 502.13 C 212.98 497.79 208.00 490.42 208.00 480.65 C 208.00 467.86 216.49 458.63 229.48 457.29 C 247.47 455.43 260.40 474.00 252.62 490.50 C 249.81 496.46 247.05 499.17 241.00 501.92 C 235.38 504.46 227.80 504.55 222.50 502.13 Z M 225.42 411.11 C 223.73 410.08 221.80 407.92 221.13 406.32 C 220.22 404.12 220.00 388.70 220.21 343.95 L 220.50 284.50 L 223.30 277.44 C 230.43 259.41 246.06 246.59 265.35 242.93 C 271.89 241.69 328.20 241.72 331.18 242.97 C 335.13 244.61 337.14 246.71 338.47 250.60 C 340.11 255.37 339.01 259.45 334.99 263.48 L 331.97 266.50 L 298.73 267.00 C 266.90 267.48 265.33 267.59 261.38 269.70 C 254.68 273.29 251.30 276.71 248.06 283.20 L 245.00 289.32 L 244.99 344.91 C 244.99 379.74 244.61 401.88 243.97 404.19 C 241.78 412.04 232.57 415.48 225.42 411.11 Z M 495.00 630.89 C 415.85 621.93 355.21 559.00 350.08 480.50 C 345.76 414.34 381.13 353.04 440.96 323.02 C 491.02 297.90 549.75 300.96 598.50 331.24 C 616.71 342.55 635.02 360.18 647.28 378.21 C 658.50 394.72 668.08 417.78 672.21 438.27 C 674.14 447.83 674.47 452.54 674.43 470.00 C 674.39 487.29 674.04 492.11 672.17 500.77 C 662.78 544.27 639.11 579.69 603.50 603.52 C 570.58 625.56 532.57 635.15 495.00 630.89 Z M 539.50 604.09 C 611.98 588.43 658.82 521.83 648.49 449.14 C 646.82 437.41 640.96 418.84 635.45 407.88 C 625.80 388.66 606.87 366.99 589.87 355.70 C 579.60 348.89 563.63 341.20 552.37 337.67 C 527.86 329.96 496.14 329.98 471.51 337.73 C 432.10 350.12 398.16 382.46 383.39 421.69 C 382.00 425.39 379.67 433.16 378.21 438.96 C 375.80 448.54 375.56 451.27 375.53 469.00 C 375.51 484.22 375.91 490.32 377.32 496.77 C 390.07 554.81 435.51 597.02 494.50 605.62 C 506.39 607.35 527.77 606.63 539.50 604.09 Z M 455.42 533.03 C 449.24 530.53 446.27 522.17 449.43 516.20 C 450.22 514.72 460.57 503.83 472.43 492.01 C 484.29 480.19 494.00 470.15 494.00 469.69 C 494.00 469.24 483.65 458.38 471.00 445.56 C 449.39 423.67 448.00 422.04 448.00 418.58 C 448.00 407.57 459.49 402.16 468.60 408.88 C 470.74 410.46 481.50 420.86 492.50 431.98 L 512.50 452.21 L 524.50 439.85 C 531.10 433.06 541.53 422.66 547.68 416.75 C 558.84 406.00 558.85 406.00 563.85 406.00 C 568.16 406.00 569.35 406.47 572.43 409.37 C 575.57 412.33 576.00 413.32 576.00 417.57 L 576.00 422.40 L 552.52 445.96 L 529.04 469.51 L 552.52 493.05 C 575.62 516.21 576.00 516.65 576.00 520.75 C 576.00 529.46 570.52 534.66 562.30 533.73 C 557.88 533.23 556.99 532.48 534.87 510.37 L 512.00 487.52 L 489.75 509.65 C 477.51 521.83 466.52 532.29 465.32 532.89 C 462.78 534.18 458.40 534.24 455.42 533.03 Z" stroke-linecap="round"/>
</g>
</g>
</g>

  </svg>